<svg width="17" height="17" viewBox="0 0 17 17" fill="none" xmlns="http://www.w3.org/2000/svg">
<path d="M14.5105 2.48966C13.7299 1.70906 12.821 1.0963 11.8087 0.668126C10.7607 0.224759 9.64746 0 8.5 0C7.35254 0 6.2395 0.224759 5.19125 0.668126C4.17896 1.0963 3.2701 1.70906 2.48949 2.48966C1.70888 3.27026 1.09612 4.1791 0.667941 5.19138C0.224762 6.23943 0 7.35265 0 8.5001C0 9.64754 0.221878 10.7462 0.659481 11.7884C1.08209 12.7949 1.68754 13.7003 2.45892 14.4796C3.24069 15.2694 4.15319 15.8897 5.17106 16.3232C6.22508 16.7722 7.34504 17 8.5 17C9.65496 17 10.7751 16.7724 11.8289 16.3232C12.8468 15.8897 13.7593 15.2692 14.5411 14.4796C15.3125 13.7003 15.9179 12.7949 16.3405 11.7884C16.7781 10.7462 17 9.63985 17 8.5001C17 7.36034 16.7752 6.23962 16.3319 5.19138C15.9037 4.1791 15.2909 3.27026 14.5103 2.48966H14.5105ZM14.2352 13.9916C13.8912 13.1618 13.3069 12.6017 12.5315 12.1193C11.3194 11.3651 10.1164 11.0436 10.1164 11.0436C10.0745 10.9132 10.0276 10.4862 10.0024 10.0453C10.1514 9.88076 10.3014 9.7083 10.4677 9.54487C10.7743 9.2434 10.8076 8.81253 10.9178 8.25592C11.0812 8.33494 11.1771 8.22842 11.2333 8.14267C11.2694 8.0873 11.2839 8.02078 11.2973 7.95598C11.3462 7.72276 11.3948 7.48954 11.4436 7.25633C11.4804 7.08117 11.5171 6.90179 11.4923 6.72452C11.4805 6.64069 11.4507 6.55282 11.3817 6.5036C11.3129 6.45438 11.1979 6.4663 11.1635 6.54359C11.1635 6.54359 11.2752 5.44594 11.2752 5.53823C11.3685 5.4346 11.4421 5.20927 11.4113 5.03507C11.3806 4.86088 11.3252 4.69149 11.2975 4.51691C11.2673 4.32522 11.2704 4.12738 11.2154 3.94108C11.1377 3.67863 10.9522 3.46349 10.7632 3.26545C10.6294 3.12529 10.4911 2.98897 10.3402 2.86746C10.038 2.62444 9.67764 2.44178 9.29215 2.39852C9.16833 2.38468 9.04374 2.38526 8.91915 2.38583C8.77956 2.3866 8.63997 2.38718 8.50038 2.38795C8.3608 2.38718 8.22121 2.3866 8.08162 2.38583C7.95723 2.38526 7.83244 2.38468 7.70862 2.39852C7.32312 2.44178 6.96301 2.62444 6.66057 2.86746C6.50964 2.98897 6.3712 3.12529 6.23758 3.26545C6.04877 3.46349 5.86304 3.67863 5.78536 3.94108C5.73037 4.12719 5.73345 4.32503 5.70326 4.51691C5.67558 4.69149 5.62039 4.86088 5.58944 5.03507C5.55868 5.20927 5.63232 5.4346 5.72557 5.53823C5.72557 5.44594 5.83727 6.54359 5.83727 6.54359C5.80286 6.4663 5.68788 6.45438 5.61905 6.5036C5.55022 6.55282 5.52041 6.64069 5.50849 6.72452C5.48369 6.90179 5.52041 7.08117 5.55714 7.25633C5.60597 7.48954 5.65462 7.72296 5.70345 7.95598C5.71711 8.02097 5.73133 8.0873 5.76748 8.14267C5.82074 8.22381 5.88399 8.31917 6.08434 8.26226C6.19335 8.81561 6.22777 9.24474 6.53309 9.54487C6.69364 9.70253 6.84572 9.86903 6.99915 10.0284C6.97416 10.4752 6.92647 10.9117 6.88418 11.0438C6.88418 11.0438 5.68115 11.3652 4.46909 12.1195C3.69348 12.6021 3.10917 13.162 2.7654 13.9918C1.34223 12.5069 0.559886 10.562 0.559886 8.50029C0.559886 7.42821 0.769843 6.38824 1.1838 5.40961C1.58372 4.46404 2.15629 3.6148 2.88557 2.88553C3.61484 2.15627 4.46409 1.5837 5.40967 1.18378C6.38851 0.769835 7.4283 0.55988 8.50038 0.55988C9.57247 0.55988 10.6123 0.769835 11.5911 1.18378C12.5367 1.5837 13.3859 2.15627 14.1152 2.88553C14.8445 3.6148 15.4171 4.46404 15.817 5.40961C16.2309 6.38843 16.4409 7.42821 16.4409 8.50029C16.4409 10.5622 15.6587 12.5069 14.2354 13.992L14.2352 13.9916Z" fill="black"/>
</svg>
